<?xml version="1.0" encoding="utf-8"?>
<!-- Generator: Adobe Illustrator 15.1.0, SVG Export Plug-In . SVG Version: 6.00 Build 0)  -->
<!DOCTYPE svg PUBLIC "-//W3C//DTD SVG 1.1//EN" "http://www.w3.org/Graphics/SVG/1.1/DTD/svg11.dtd" [
	<!ENTITY st0 "fill:#007CA9;">
	<!ENTITY st1 "fill:#A69C94;">
]>
<svg version="1.1" id="Layer_1" xmlns="http://www.w3.org/2000/svg" xmlns:xlink="http://www.w3.org/1999/xlink" x="0px" y="0px"
	 width="23.999px" height="24px" viewBox="0 0 23.999 24" style="enable-background:new 0 0 23.999 24;" xml:space="preserve">
<g>
	<g>
		<path style="&st0;" d="M11.024,0.042c2.756-0.235,5.58,0.531,7.844,2.123c2.414,1.678,4.174,4.271,4.824,7.14
			c0.739,3.138,0.131,6.56-1.645,9.25c-1.479,2.273-3.744,4.02-6.326,4.854c-2.971,0.986-6.328,0.732-9.117-0.689
			c-2.457-1.23-4.463-3.336-5.574-5.85c-1.345-2.99-1.374-6.533-0.082-9.547C2.622,3.28,6.655,0.349,11.024,0.042z M10.94,1.527
			c-3.986,0.356-7.59,3.215-8.879,6.996c-0.707,2.013-0.781,4.246-0.205,6.298c0.682,2.482,2.322,4.68,4.494,6.059
			c2.607,1.689,5.984,2.107,8.932,1.125c2.725-0.889,5.037-2.941,6.246-5.535c1.395-2.92,1.318-6.488-0.201-9.344
			C19.419,3.382,15.122,1.046,10.94,1.527z"/>
	</g>
	<path style="&st0;" d="M11.228,3.931c0.514-0.008,1.029-0.008,1.543,0c0.016,5.363,0.008,10.728,0.004,16.093
		c-0.516,0.016-1.035,0.016-1.551,0C11.218,14.659,11.21,9.294,11.228,3.931z"/>
	<path style="&st0;" d="M15.407,9.479c0.119-0.322,0.359-0.666,0.734-0.691c0.387-0.032,0.678,0.295,0.803,0.626
		c0.52,1.335,0.531,2.814,0.988,4.16c0.324-1.305,0.453-2.656,0.857-3.943c0.125-0.413,0.428-0.92,0.934-0.837
		c0.518,0.096,0.695,0.666,0.834,1.103c0.283,1.052,0.467,2.13,0.674,3.201c0.102,0.555-0.795,0.768-0.959,0.234
		c-0.23-0.939-0.361-1.9-0.594-2.84c-0.023,0-0.068-0.002-0.092-0.002c-0.295,1.244-0.432,2.523-0.803,3.75
		c-0.127,0.416-0.383,0.943-0.891,0.934c-0.508-0.014-0.738-0.543-0.869-0.959c-0.375-1.258-0.51-2.574-0.826-3.85
		c-0.404,1.32-0.49,2.723-0.928,4.035c-0.119,0.33-0.318,0.723-0.709,0.766c-0.426,0.07-0.729-0.324-0.863-0.676
		c-0.191-0.504-0.369-1.027-0.434-1.566c0.002-1.266-0.021-2.535,0.012-3.802c0.619,1.402,0.711,2.976,1.16,4.435
		C14.854,12.226,14.913,10.794,15.407,9.479z"/>
</g>
<g>
	<path style="&st1;" d="M8.491,6.23c0.303-0.136,0.676,0.166,0.598,0.491C9.06,7.08,8.538,7.229,8.319,6.948
		C8.103,6.733,8.21,6.33,8.491,6.23z"/>
	<path style="&st1;" d="M6.491,7.278C7.05,7.162,7.194,8.1,6.63,8.159C6.054,8.282,5.913,7.332,6.491,7.278z"/>
	<path style="&st1;" d="M10.058,7.621c0.293-0.098,0.621,0.181,0.57,0.484c-0.016,0.356-0.525,0.532-0.76,0.266
		C9.624,8.152,9.743,7.702,10.058,7.621z"/>
	<path style="&st1;" d="M7.88,9.092C7.962,8.631,8.62,8.625,8.771,9.05c0.316-0.325,0.902-0.362,1.154,0.063
		c0.459,0.781,0.598,1.705,0.797,2.578c0.027,1.117,0.016,2.236,0.006,3.354c-0.342-0.273-0.396-0.736-0.529-1.125
		c-0.289,0.178-0.779,0.1-0.789-0.307c-0.051-0.352,0.307-0.504,0.598-0.494c-0.193-0.893-0.371-1.793-0.617-2.674
		c-0.502,1.402-0.445,3.006-1.145,4.354c-0.258,0.518-1.039,0.469-1.27-0.049c-0.641-1.375-0.607-2.955-1.084-4.385
		c-0.316,1.281-0.459,2.602-0.828,3.869c-0.127,0.416-0.371,0.936-0.875,0.945c-0.527-0.021-0.76-0.578-0.896-1.012
		c-0.303-1.068-0.484-2.17-0.699-3.26c-0.141-0.52,0.66-0.83,0.914-0.363c0.307,0.973,0.348,2.02,0.684,2.984
		c0.289-1,0.408-2.043,0.639-3.059c-0.07-0.199-0.271-0.371-0.201-0.603c0.049-0.315,0.49-0.266,0.576-0.558
		c0.145-0.308,0.451-0.593,0.818-0.51c0.441,0.076,0.639,0.576,0.76,0.957c0.385,1.241,0.506,2.836,0.818,3.836h0.068
		c0.318-1,0.471-2.654,0.855-3.926C8.196,9.711,7.798,9.477,7.88,9.092z"/>
	<path style="&st1;" d="M5.878,15.034c0.262-0.178,0.656,0.01,0.672,0.326c0.066,0.34-0.338,0.623-0.637,0.455
		C5.603,15.685,5.581,15.194,5.878,15.034z"/>
	<path style="&st1;" d="M9.892,15.472c0.496-0.314,0.963,0.539,0.428,0.779C9.829,16.554,9.39,15.728,9.892,15.472z"/>
	<path style="&st1;" d="M8.759,16.538c0.254-0.15,0.631,0.006,0.666,0.309c0.07,0.295-0.227,0.59-0.521,0.52
		C8.509,17.319,8.405,16.72,8.759,16.538z"/>
</g>
</svg>
